PathFileType	4	(x/y/z)	S01_BK_Cal.trc
DataRate	CameraRate	NumFrames	NumMarkers	Units	OrigDataRate	OrigDataStartFrame	OrigNumFrames
240	240	11	51	mm	240	1	2400
Frame#	Time	Sternum			R.Acromium			L.Acromium			Top.Head			R.ASIS			L.ASIS			R.PSIS			L.PSIS			R.Great.Tro			L.Great.Tro			R.Iliac.Crest			L.Iliac.Crest			V.Sacral			R.Thigh.Upper.Post			R.Thigh.Lower.Ant			R.Thigh.Lower.Post			R.Thigh.Upper.Ant			R.Knee.Lat			R.Knee.Med			R.Shank.Upper.Post			R.Shank.Lower.Ant			R.Shank.Lower.Post			R.Shank.Upper.Ant			R.Ankle.Lat			R.Ankle.Med			R.Heel.Upper			R.Heel.Med			R.Heel.Lat			R.Toe.Lat			R.Toe.Med			R.Toe.Tip			L.Thigh.Upper.Post			L.Thigh.Lower.Ant			L.Thigh.Lower.Post			L.Thigh.Upper.Ant			L.Knee.Lat			L.Knee.Med			L.Shank.Upper.Post			L.Shank.Lower.Ant			L.Shank.Lower.Post			L.Shank.Upper.Ant			L.Ankle.Lat			L.Ankle.Med			L.Heel.Upper			L.Heel.Med			L.Heel.Lat			L.Toe.Lat			L.Toe.Med			L.Toe.Tip			Cervical.Spine			Back			
		X1	Y1	Z1	X2	Y2	Z2	X3	Y3	Z3	X4	Y4	Z4	X5	Y5	Z5	X6	Y6	Z6	X7	Y7	Z7	X8	Y8	Z8	X9	Y9	Z9	X10	Y10	Z10	X11	Y11	Z11	X12	Y12	Z12	X13	Y13	Z13	X14	Y14	Z14	X15	Y15	Z15	X16	Y16	Z16	X17	Y17	Z17	X18	Y18	Z18	X19	Y19	Z19	X20	Y20	Z20	X21	Y21	Z21	X22	Y22	Z22	X23	Y23	Z23	X24	Y24	Z24	X25	Y25	Z25	X26	Y26	Z26	X27	Y27	Z27	X28	Y28	Z28	X29	Y29	Z29	X30	Y30	Z30	X31	Y31	Z31	X32	Y32	Z32	X33	Y33	Z33	X34	Y34	Z34	X35	Y35	Z35	X36	Y36	Z36	X37	Y37	Z37	X38	Y38	Z38	X39	Y39	Z39	X40	Y40	Z40	X41	Y41	Z41	X42	Y42	Z42	X43	Y43	Z43	X44	Y44	Z44	X45	Y45	Z45	X46	Y46	Z46	X47	Y47	Z47	X48	Y48	Z48	X49	Y49	Z49	X50	Y50	Z50	X51	Y51	Z51	

1	0	737.35	1270	273.92	582.2	1509.2	454.18	551.01	1520.8	128.71	481.63	1814.9	299.45	706.62	998.84	428.99	708.39	998.93	159.83	470.26	1032.3	336.22	468.29	1029.8	232.39	631.43	944.74	508.97	603.01	944.7	80.654	613.8	1095.1	492.49	594.77	1080.7	88.072	458.09	993.81	282.52	661.82	640.64	513.74	740.17	576.01	496.83	675.19	552.45	500.36	730.22	665.88	508.86	705.75	488.27	499.45	714.41	479.31	359.29	601.09	363.01	529.62	621.45	262.14	490.33	569.31	299.97	522.94	651.99	328.03	505.44	482.36	113.29	497.98	512.24	106.84	404.36	406.84	81.785	444.31	416.71	49.103	416.18	413.93	53.443	481.26	601.65	35.001	539.35	634.47	40.192	414.85	697.19	51.449	470.9	609.49	657.47	81.138	700.44	597.44	64.81	635.87	573.22	83.619	670.48	687.99	57.273	688.57	489.5	72.305	726.16	484.91	208.3	599.38	381.44	49.52	624.36	275.18	69.619	572.37	308.13	49.642	652.49	346.78	63.15	475.65	113.6	79.588	504.71	118.24	174.19	400.48	82.942	124.89	409.51	54.916	155.62	407.86	58.909	93.734	610.35	38.012	45.224	635.07	45.297	167.75	697.59	55.365	117.83	480.46	1550.1	299.77	436.22	1228.1	310.57
2	0.0041667	737.32	1270	273.89	582.17	1509.2	454.22	550.99	1520.8	128.73	481.67	1814.9	299.51	706.61	998.85	429.03	708.37	998.94	159.86	470.25	1032.3	336.26	468.3	1029.9	232.4	631.44	944.76	509	603	944.7	80.676	613.8	1095.1	492.53	594.75	1080.7	88.102	458.1	993.81	282.55	661.81	640.63	513.76	740.16	576.04	496.91	675.19	552.46	500.38	730.22	665.9	508.92	705.75	488.28	499.47	714.41	479.33	359.32	601.1	363.03	529.67	621.45	262.14	490.34	569.29	299.98	522.91	651.98	328.03	505.45	482.37	113.31	498.01	512.25	106.82	404.39	406.82	81.805	444.32	416.69	49.133	416.21	413.93	53.446	481.28	601.65	34.996	539.36	634.45	40.165	414.87	697.19	51.454	470.91	609.48	657.48	81.156	700.44	597.44	64.847	635.87	573.24	83.619	670.48	687.99	57.29	688.56	489.51	72.332	726.15	484.92	208.31	599.33	381.48	49.498	624.36	275.18	69.63	572.39	308.16	49.633	652.43	346.78	63.148	475.46	113.63	79.576	504.76	118.24	174.2	400.46	83.058	124.83	409.52	54.912	155.63	407.87	58.912	93.746	610.37	38.004	45.242	635.07	45.294	167.74	697.59	55.366	117.83	480.39	1550.1	299.79	436.25	1228.2	310.58
3	0.0083333	737.29	1269.9	273.87	582.14	1509.2	454.26	550.96	1520.8	128.76	481.71	1814.9	299.56	706.6	998.87	429.06	708.35	998.95	159.88	470.24	1032.3	336.3	468.32	1029.9	232.41	631.44	944.79	509.04	603	944.7	80.7	613.8	1095.1	492.57	594.74	1080.7	88.134	458.11	993.82	282.58	661.81	640.63	513.78	740.15	576.07	496.98	675.18	552.48	500.4	730.21	665.93	508.98	705.75	488.29	499.49	714.41	479.35	359.35	601.1	363.05	529.71	621.45	262.13	490.35	569.27	299.98	522.87	651.98	328.03	505.47	482.39	113.33	498.05	512.27	106.8	404.41	406.79	81.823	444.33	416.67	49.163	416.23	413.93	53.449	481.29	601.65	34.992	539.36	634.44	40.139	414.89	697.19	51.458	470.92	609.46	657.49	81.175	700.44	597.44	64.884	635.86	573.26	83.619	670.48	688	57.307	688.56	489.52	72.359	726.14	484.92	208.32	599.29	381.53	49.478	624.35	275.18	69.641	572.4	308.18	49.625	652.37	346.79	63.146	475.28	113.66	79.564	504.8	118.25	174.2	400.44	83.172	124.77	409.53	54.909	155.63	407.87	58.915	93.759	610.39	37.995	45.259	635.07	45.291	167.72	697.59	55.367	117.82	480.33	1550.1	299.81	436.28	1228.2	310.58
4	0.0125	737.26	1269.8	273.86	582.1	1509.2	454.3	550.94	1520.8	128.79	481.75	1814.9	299.62	706.59	998.88	429.09	708.33	998.96	159.9	470.23	1032.3	336.34	468.33	1029.9	232.43	631.45	944.81	509.07	602.99	944.71	80.724	613.79	1095.2	492.61	594.72	1080.7	88.169	458.11	993.83	282.61	661.8	640.62	513.81	740.13	576.09	497.05	675.18	552.49	500.43	730.2	665.95	509.04	705.74	488.3	499.51	714.42	479.37	359.38	601.1	363.06	529.76	621.45	262.13	490.36	569.25	299.99	522.84	651.97	328.04	505.49	482.4	113.34	498.08	512.28	106.77	404.44	406.77	81.841	444.34	416.65	49.192	416.26	413.93	53.452	481.3	601.65	34.988	539.37	634.43	40.114	414.91	697.19	51.462	470.93	609.45	657.5	81.195	700.44	597.44	64.922	635.86	573.29	83.62	670.48	688.01	57.325	688.54	489.53	72.386	726.13	484.93	208.33	599.25	381.58	49.459	624.34	275.18	69.652	572.41	308.21	49.618	652.31	346.8	63.146	475.11	113.69	79.552	504.84	118.26	174.21	400.42	83.28	124.71	409.54	54.906	155.64	407.87	58.917	93.771	610.4	37.987	45.275	635.07	45.288	167.71	697.58	55.367	117.82	480.26	1550	299.83	436.3	1228.2	310.59
5	0.016667	737.23	1269.7	273.84	582.07	1509.3	454.35	550.91	1520.8	128.82	481.8	1815	299.68	706.59	998.89	429.13	708.31	998.97	159.93	470.22	1032.3	336.39	468.34	1029.9	232.45	631.45	944.83	509.11	602.98	944.71	80.75	613.79	1095.2	492.65	594.71	1080.7	88.208	458.12	993.83	282.64	661.79	640.62	513.83	740.12	576.12	497.12	675.17	552.5	500.45	730.19	665.97	509.1	705.74	488.31	499.53	714.42	479.39	359.4	601.1	363.08	529.8	621.45	262.12	490.37	569.23	299.99	522.81	651.96	328.04	505.51	482.42	113.36	498.11	512.29	106.75	404.47	406.75	81.857	444.35	416.63	49.22	416.28	413.93	53.454	481.31	601.65	34.984	539.37	634.42	40.091	414.93	697.2	51.465	470.94	609.43	657.51	81.215	700.44	597.44	64.958	635.85	573.31	83.621	670.47	688.01	57.343	688.53	489.54	72.413	726.12	484.94	208.35	599.2	381.62	49.443	624.34	275.18	69.663	572.42	308.23	49.611	652.26	346.8	63.146	474.94	113.72	79.542	504.88	118.26	174.22	400.41	83.382	124.66	409.55	54.903	155.64	407.88	58.918	93.782	610.42	37.98	45.291	635.07	45.286	167.7	697.58	55.368	117.81	480.2	1550	299.85	436.33	1228.2	310.6
6	0.020833	737.2	1269.7	273.84	582.03	1509.3	454.39	550.88	1520.8	128.85	481.85	1815	299.73	706.58	998.91	429.17	708.29	998.99	159.96	470.22	1032.3	336.43	468.34	1029.9	232.47	631.46	944.85	509.15	602.97	944.71	80.777	613.78	1095.2	492.69	594.71	1080.7	88.248	458.13	993.84	282.67	661.78	640.61	513.85	740.11	576.14	497.19	675.17	552.51	500.47	730.18	665.99	509.16	705.74	488.32	499.55	714.42	479.41	359.43	601.1	363.1	529.84	621.45	262.12	490.38	569.21	300	522.79	651.96	328.04	505.52	482.43	113.37	498.14	512.31	106.73	404.49	406.73	81.871	444.36	416.62	49.245	416.31	413.93	53.456	481.33	601.65	34.98	539.37	634.41	40.07	414.95	697.2	51.468	470.94	609.42	657.52	81.235	700.43	597.45	64.992	635.85	573.33	83.624	670.47	688.02	57.362	688.52	489.55	72.439	726.1	484.94	208.36	599.16	381.66	49.428	624.33	275.18	69.674	572.43	308.25	49.606	652.21	346.81	63.147	474.79	113.74	79.532	504.92	118.26	174.23	400.39	83.475	124.61	409.56	54.9	155.65	407.88	58.919	93.793	610.43	37.974	45.305	635.07	45.284	167.69	697.58	55.368	117.81	480.13	1550	299.87	436.34	1228.2	310.61
7	0.025	737.17	1269.6	273.84	581.99	1509.3	454.43	550.85	1520.8	128.88	481.9	1815	299.79	706.57	998.92	429.2	708.28	999	159.99	470.21	1032.3	336.47	468.35	1029.9	232.5	631.46	944.87	509.19	602.96	944.72	80.805	613.78	1095.2	492.73	594.7	1080.7	88.29	458.13	993.84	282.7	661.78	640.6	513.87	740.09	576.16	497.25	675.16	552.52	500.49	730.17	666.01	509.21	705.74	488.33	499.57	714.42	479.43	359.46	601.1	363.11	529.88	621.45	262.12	490.39	569.19	300	522.76	651.95	328.04	505.54	482.44	113.39	498.17	512.32	106.72	404.51	406.71	81.882	444.37	416.6	49.268	416.33	413.94	53.458	481.34	601.65	34.977	539.38	634.41	40.052	414.96	697.2	51.471	470.95	609.4	657.53	81.255	700.43	597.45	65.026	635.84	573.35	83.629	670.46	688.03	57.381	688.5	489.56	72.464	726.09	484.95	208.38	599.13	381.69	49.417	624.32	275.18	69.686	572.43	308.28	49.602	652.16	346.82	63.149	474.66	113.76	79.524	504.95	118.27	174.23	400.38	83.557	124.57	409.57	54.897	155.65	407.88	58.919	93.803	610.45	37.968	45.317	635.07	45.282	167.68	697.57	55.369	117.8	480.07	1550	299.9	436.36	1228.1	310.62
8	0.029167	737.14	1269.6	273.85	581.96	1509.3	454.47	550.82	1520.8	128.91	481.95	1815.1	299.84	706.56	998.92	429.24	708.26	999.01	160.02	470.2	1032.3	336.51	468.35	1029.9	232.52	631.46	944.88	509.22	602.95	944.72	80.833	613.77	1095.2	492.77	594.7	1080.7	88.333	458.14	993.85	282.74	661.77	640.6	513.9	740.08	576.18	497.31	675.15	552.52	500.51	730.15	666.03	509.26	705.73	488.34	499.59	714.42	479.45	359.48	601.1	363.12	529.91	621.45	262.11	490.4	569.17	300.01	522.75	651.94	328.04	505.56	482.45	113.4	498.2	512.32	106.7	404.53	406.7	81.892	444.38	416.59	49.288	416.34	413.94	53.46	481.35	601.65	34.974	539.38	634.4	40.037	414.98	697.2	51.473	470.96	609.38	657.54	81.276	700.42	597.45	65.058	635.83	573.37	83.637	670.45	688.04	57.401	688.49	489.58	72.488	726.08	484.96	208.39	599.09	381.72	49.408	624.31	275.18	69.696	572.44	308.3	49.6	652.11	346.82	63.153	474.54	113.78	79.517	504.98	118.27	174.24	400.36	83.629	124.53	409.58	54.894	155.66	407.88	58.918	93.812	610.46	37.963	45.328	635.07	45.281	167.68	697.57	55.369	117.8	480.01	1550	299.92	436.37	1228.1	310.64
9	0.033333	737.11	1269.5	273.86	581.92	1509.3	454.52	550.79	1520.8	128.94	482	1815.1	299.89	706.55	998.93	429.27	708.25	999.02	160.05	470.19	1032.4	336.55	468.36	1029.9	232.55	631.46	944.9	509.26	602.94	944.73	80.862	613.76	1095.3	492.8	594.69	1080.7	88.376	458.14	993.85	282.77	661.76	640.6	513.92	740.07	576.2	497.36	675.15	552.53	500.53	730.14	666.04	509.31	705.73	488.35	499.62	714.42	479.46	359.51	601.1	363.13	529.94	621.44	262.11	490.41	569.15	300.01	522.73	651.94	328.05	505.57	482.46	113.41	498.22	512.33	106.69	404.55	406.68	81.9	444.39	416.58	49.305	416.36	413.94	53.46	481.36	601.65	34.972	539.38	634.39	40.024	414.99	697.2	51.475	470.96	609.37	657.55	81.297	700.41	597.46	65.088	635.81	573.39	83.65	670.44	688.05	57.421	688.47	489.59	72.512	726.06	484.96	208.41	599.06	381.75	49.403	624.3	275.19	69.707	572.44	308.31	49.599	652.07	346.83	63.157	474.43	113.8	79.511	505.01	118.27	174.25	400.35	83.69	124.5	409.59	54.891	155.66	407.88	58.917	93.82	610.47	37.959	45.337	635.07	45.281	167.67	697.57	55.369	117.8	479.96	1550	299.95	436.37	1228.1	310.66
10	0.0375	737.08	1269.5	273.88	581.88	1509.3	454.56	550.76	1520.8	128.97	482.06	1815.1	299.94	706.55	998.94	429.31	708.23	999.03	160.08	470.18	1032.4	336.58	468.36	1029.9	232.57	631.47	944.91	509.29	602.93	944.74	80.892	613.75	1095.3	492.84	594.69	1080.7	88.418	458.14	993.86	282.8	661.75	640.59	513.94	740.05	576.21	497.41	675.14	552.54	500.55	730.13	666.05	509.35	705.72	488.35	499.64	714.42	479.48	359.53	601.09	363.14	529.97	621.44	262.11	490.42	569.14	300.01	522.72	651.93	328.05	505.58	482.46	113.41	498.24	512.33	106.68	404.56	406.67	81.907	444.39	416.57	49.32	416.37	413.94	53.461	481.36	601.65	34.97	539.39	634.39	40.013	415	697.2	51.476	470.97	609.35	657.56	81.319	700.4	597.46	65.116	635.79	573.4	83.668	670.43	688.06	57.442	688.45	489.6	72.534	726.05	484.97	208.42	599.03	381.78	49.399	624.28	275.19	69.718	572.44	308.33	49.6	652.03	346.84	63.163	474.35	113.81	79.506	505.03	118.27	174.25	400.34	83.74	124.47	409.6	54.888	155.67	407.88	58.914	93.827	610.47	37.956	45.345	635.06	45.281	167.67	697.57	55.369	117.79	479.9	1550	299.98	436.38	1228.1	310.68
11	0.041667	737.04	1269.5	273.9	581.84	1509.3	454.6	550.73	1520.8	129	482.12	1815.2	299.98	706.54	998.94	429.34	708.22	999.05	160.11	470.18	1032.4	336.62	468.36	1029.9	232.6	631.47	944.93	509.33	602.92	944.74	80.921	613.74	1095.3	492.88	594.68	1080.7	88.46	458.14	993.86	282.84	661.74	640.59	513.96	740.04	576.23	497.45	675.13	552.54	500.57	730.12	666.07	509.39	705.71	488.36	499.66	714.42	479.49	359.55	601.09	363.14	530	621.44	262.11	490.43	569.13	300.01	522.71	651.92	328.05	505.59	482.47	113.42	498.25	512.34	106.67	404.57	406.66	81.911	444.4	416.56	49.332	416.38	413.94	53.461	481.37	601.65	34.968	539.39	634.39	40.005	415.01	697.2	51.478	470.97	609.33	657.57	81.34	700.38	597.47	65.143	635.77	573.41	83.695	670.42	688.07	57.462	688.42	489.61	72.556	726.03	484.97	208.44	599	381.8	49.399	624.27	275.2	69.729	572.43	308.35	49.602	651.99	346.85	63.169	474.27	113.82	79.502	505.05	118.27	174.26	400.33	83.781	124.44	409.6	54.884	155.67	407.88	58.911	93.833	610.48	37.954	45.352	635.06	45.281	167.66	697.57	55.37	117.79	479.85	1549.9	300.01	436.37	1228.1	310.7
